<svg id="Layer_1" data-name="Layer 1" xmlns="http://www.w3.org/2000/svg" viewBox="0 0 512 512"><defs><style>.cls-1{fill:#29282a;}.cls-2{fill:#fff;}</style></defs><title>discord-black</title><rect class="cls-1" width="512" height="512" rx="76.8"/><path class="cls-2" d="M346,392l-21-25c41-11,57-39,57-39-52,49-194,51-249,0,0,0,14,26,56,39l-23,25c-70-1-97-48-97-48,0-104,46-187,46-187,47-33,90-33,90-33l3,4c-58,16-83,42-83,42,68-46,208-42,263,0,1-1-33-28-86-42l5-4s43,0,90,33c0,0,46,83,46,187C443,344,416,391,346,392Z"/><ellipse class="cls-1" cx="196" cy="279" rx="33" ry="35"/><ellipse class="cls-1" cx="312" cy="279" rx="33" ry="35"/></svg>