<?xml version="1.0" encoding="utf-8"?>
<!-- Generator: Adobe Illustrator 23.0.6, SVG Export Plug-In . SVG Version: 6.00 Build 0)  -->
<svg version="1.1" id="Layer_1" xmlns="http://www.w3.org/2000/svg" xmlns:xlink="http://www.w3.org/1999/xlink" x="0px" y="0px"
	 viewBox="0 0 512 512" style="enable-background:new 0 0 512 512;" xml:space="preserve">
<style type="text/css">
	.st0{fill:#F8F32B;}
	.st1{fill:#29282A;}
	.st2{fill:#F3EB38;}
	.st3{fill:#F4EB38;}
</style>
<title>discord-yellow</title>
<path class="st0" d="M76.8,0h358.4C477.6,0,512,34.4,512,76.8v358.4c0,42.4-34.4,76.8-76.8,76.8H76.8C34.4,512,0,477.6,0,435.2V76.8
	C0,34.4,34.4,0,76.8,0z"/>
<path class="st1" d="M346,392l-21-25c41-11,57-39,57-39c-52,49-194,51-249,0c0,0,14,26,56,39l-23,25c-70-1-97-48-97-48
	c0-104,46-187,46-187c47-33,90-33,90-33l3,4c-58,16-83,42-83,42c68-46,208-42,263,0c1-1-33-28-86-42l5-4c0,0,43,0,90,33
	c0,0,46,83,46,187C443,344,416,391,346,392z"/>
<ellipse class="st2" cx="196" cy="279" rx="33" ry="35"/>
<ellipse class="st3" cx="312" cy="279" rx="33" ry="35"/>
</svg>
