<svg id="Layer_1" data-name="Layer 1" xmlns="http://www.w3.org/2000/svg" viewBox="0 0 48 48"><defs><style>.cls-1,.cls-2{fill:#29282a;}.cls-2{fill-rule:evenodd;}</style></defs><title>steam-black</title><path class="cls-1" d="M1,31l9.06,3.77a6.61,6.61,0,0,0,12.59,1.12,6.92,6.92,0,0,0,.51-2.75l8.37-6h.2A9.16,9.16,0,1,0,22.64,18v.12l-5.85,8.55a6.67,6.67,0,0,0-2.8.5,6.23,6.23,0,0,0-1.11.6L0,22.4v.05l0,0A24,24,0,1,1,1,31Z"/><path class="cls-1" d="M21.24,35.3a5.09,5.09,0,0,1-9.32.25l2.95,1.23a3.76,3.76,0,0,0,4.93-2,3.81,3.81,0,0,0-2-5L14.71,28.5a5,5,0,0,1,3.78.05,5.12,5.12,0,0,1,2.76,2.8A5.2,5.2,0,0,1,21.24,35.3Z"/><path class="cls-2" d="M25.67,18a6.05,6.05,0,1,0,6-6.1A6.09,6.09,0,0,0,25.67,18Zm6.06,4.57A4.59,4.59,0,1,1,36.28,18,4.56,4.56,0,0,1,31.73,22.53Z"/></svg>