<?xml version="1.0" encoding="utf-8"?>
<!-- Generator: Adobe Illustrator 23.0.6, SVG Export Plug-In . SVG Version: 6.00 Build 0)  -->
<svg version="1.1" id="Layer_1" focusable="false" xmlns="http://www.w3.org/2000/svg" xmlns:xlink="http://www.w3.org/1999/xlink"
	 x="0px" y="0px" viewBox="0 0 14 14" style="enable-background:new 0 0 14 14;" xml:space="preserve">
<style type="text/css">
	.st0{fill:#F8F32B;}
</style>
<path class="st0" d="M7,1C3.7,1,1,3.7,1,7s2.7,6,6,6s6-2.7,6-6S10.3,1,7,1z M12.8,7c0,0.2,0,0.4,0,0.6l-1-0.1c0-0.2,0-0.3,0-0.5
	c0-0.1,0-0.3,0-0.4l1-0.1C12.8,6.6,12.8,6.8,12.8,7z M1.2,7c0-0.2,0-0.4,0-0.6l1,0.1c0,0.2,0,0.3,0,0.5s0,0.3,0,0.5l-1,0.1
	C1.2,7.4,1.2,7.2,1.2,7z M11.5,5.5l1-0.4c0.1,0.4,0.2,0.7,0.3,1.1l-1,0.1C11.6,6,11.6,5.7,11.5,5.5z M11.5,7c0,0.3,0,0.6-0.1,0.9
	l-1-0.2c0-0.2,0.1-0.4,0.1-0.6s0-0.5-0.1-0.7l1-0.2C11.5,6.4,11.5,6.7,11.5,7z M7,10.2c-1.8,0-3.2-1.4-3.2-3.2
	c0-1.8,1.4-3.2,3.2-3.2c1.8,0,3.2,1.4,3.2,3.2C10.2,8.8,8.8,10.2,7,10.2L7,10.2z M7.1,11.5v-1c0.4,0,0.9-0.1,1.3-0.3l0.4,0.9
	C8.3,11.4,7.7,11.5,7.1,11.5z M5.1,11.1l0.5-0.9c0.4,0.2,0.8,0.3,1.3,0.3v1C6.3,11.5,5.7,11.4,5.1,11.1z M2.5,7c0-0.3,0-0.6,0.1-0.9
	l1,0.2c0,0.2-0.1,0.5-0.1,0.7c0,0.2,0,0.4,0.1,0.6l-1,0.2C2.5,7.6,2.5,7.3,2.5,7z M6.9,2.5v1C6.4,3.5,6,3.6,5.6,3.8L5.2,2.9
	C5.7,2.6,6.3,2.5,6.9,2.5z M8.8,2.9L8.4,3.8C8,3.7,7.6,3.6,7.1,3.5v-1C7.7,2.5,8.3,2.7,8.8,2.9z M11.4,5.2c-0.1-0.3-0.3-0.5-0.4-0.8
	l0.8-0.6c0.2,0.3,0.4,0.7,0.5,1C12.3,4.9,11.4,5.2,11.4,5.2z M11.4,5.9l-1,0.2C10.2,5.7,10,5.3,9.8,4.9l0.8-0.6
	C10.9,4.8,11.2,5.3,11.4,5.9z M9.6,4.7C9.3,4.4,9,4.1,8.6,3.9L9.1,3c0.5,0.3,1,0.6,1.4,1.1L9.6,4.7z M9.3,2.9L9.8,2
	c0.3,0.2,0.6,0.4,0.9,0.7l-0.7,0.8C9.8,3.2,9.6,3,9.3,2.9z M9.1,2.8C8.9,2.6,8.6,2.5,8.3,2.4l0.3-1c0.4,0.1,0.7,0.2,1.1,0.4L9.1,2.8
	z M8,2.4C7.7,2.3,7.4,2.3,7.1,2.3v-1c0.4,0,0.8,0.1,1.2,0.1L8,2.4z M6.9,2.3c-0.3,0-0.6,0-0.9,0.1l-0.2-1c0.4-0.1,0.7-0.1,1.1-0.1
	V2.3z M5.8,2.4C5.5,2.5,5.2,2.6,4.9,2.8L4.4,1.8c0.3-0.2,0.7-0.3,1.1-0.4L5.8,2.4z M4.7,2.9C4.4,3,4.2,3.2,4,3.4L3.3,2.6
	c0.3-0.3,0.6-0.5,0.9-0.7L4.7,2.9z M4.9,3l0.4,0.9C5,4.1,4.7,4.4,4.4,4.7L3.6,4.1C4,3.6,4.4,3.3,4.9,3z M3.4,4.3l0.8,0.6
	C4,5.3,3.8,5.7,3.7,6.1l-1-0.2C2.8,5.3,3.1,4.7,3.4,4.3z M2.6,5.2l-1-0.4c0.1-0.4,0.3-0.7,0.5-1L3,4.4C2.9,4.7,2.7,4.9,2.6,5.2z
	 M2.5,5.4C2.4,5.7,2.4,6,2.3,6.3l-1-0.1c0.1-0.4,0.1-0.8,0.3-1.1L2.5,5.4z M2.3,7.7c0,0.3,0.1,0.6,0.2,0.9l-1,0.4
	C1.4,8.6,1.3,8.2,1.3,7.8L2.3,7.7z M2.6,8.8C2.7,9.1,2.9,9.3,3,9.6l-0.8,0.6C2,9.9,1.8,9.5,1.7,9.2L2.6,8.8z M2.6,8.1l1-0.2
	C3.7,8.3,4,8.7,4.2,9.1L3.4,9.7C3,9.2,2.8,8.7,2.6,8.1z M4.3,9.2c0.3,0.3,0.6,0.6,1,0.8L4.9,11c-0.5-0.3-1-0.7-1.4-1.1L4.3,9.2z
	 M4.7,11.1l-0.5,0.9c-0.3-0.2-0.7-0.4-0.9-0.7L4,10.6C4.2,10.8,4.4,11,4.7,11.1z M4.9,11.2c0.3,0.1,0.6,0.2,0.9,0.3l-0.3,1
	c-0.4-0.1-0.7-0.2-1.1-0.4L4.9,11.2z M6,11.6c0.3,0.1,0.6,0.1,0.9,0.1v1c-0.4,0-0.8-0.1-1.2-0.1L6,11.6z M7.1,11.7
	c0.3,0,0.6,0,0.9-0.1l0.2,1c-0.4,0.1-0.8,0.1-1.1,0.1C7.1,12.8,7.1,11.7,7.1,11.7z M8.3,11.6c0.3-0.1,0.6-0.2,0.9-0.3l0.5,0.9
	c-0.3,0.2-0.7,0.3-1.1,0.4L8.3,11.6z M9.3,11.1c0.3-0.1,0.5-0.3,0.7-0.5l0.7,0.8c-0.3,0.3-0.6,0.5-0.9,0.7L9.3,11.1z M9.1,11
	l-0.4-0.9c0.4-0.2,0.7-0.5,1-0.8l0.8,0.6C10.1,10.3,9.6,10.7,9.1,11z M10.6,9.7L9.8,9.1c0.3-0.4,0.5-0.8,0.6-1.2l1,0.2
	C11.2,8.7,11,9.2,10.6,9.7z M11.4,8.8l1,0.4c-0.1,0.4-0.3,0.7-0.5,1L11,9.6C11.1,9.3,11.3,9.1,11.4,8.8z M11.5,8.6
	c0.1-0.3,0.2-0.6,0.2-0.9l1,0.1c-0.1,0.4-0.1,0.8-0.3,1.1L11.5,8.6z M11.7,3.7l-0.8,0.6c-0.2-0.2-0.4-0.5-0.6-0.7l0.7-0.8
	C11.2,3.1,11.5,3.3,11.7,3.7z M3.1,2.8l0.7,0.8C3.6,3.7,3.4,4,3.2,4.2L2.3,3.6C2.6,3.3,2.8,3,3.1,2.8z M2.3,10.4l0.8-0.6
	c0.2,0.2,0.4,0.5,0.6,0.7l-0.7,0.8C2.8,11,2.6,10.7,2.3,10.4z M10.9,11.2l-0.7-0.8c0.2-0.2,0.4-0.4,0.6-0.7l0.8,0.6
	C11.4,10.7,11.2,11,10.9,11.2z"/>
</svg>
